<svg width="40" height="40" viewBox="0 0 40 40" fill="none" xmlns="http://www.w3.org/2000/svg">
<path d="M35 18.3333V15H31.6667V11.6667C31.664 10.7834 31.312 9.93711 30.6874 9.31256C30.0629 8.68801 29.2166 8.33597 28.3333 8.33333H25V5H21.6667V8.33333H18.3333V5H15V8.33333H11.6667C10.7834 8.33597 9.93711 8.68801 9.31256 9.31256C8.68801 9.93711 8.33597 10.7834 8.33333 11.6667V15H5V18.3333H8.33333V21.6667H5V25H8.33333V28.3333C8.33597 29.2166 8.68801 30.0629 9.31256 30.6874C9.93711 31.312 10.7834 31.664 11.6667 31.6667H15V35H18.3333V31.6667H21.6667V35H25V31.6667H28.3333C29.2166 31.664 30.0629 31.312 30.6874 30.6874C31.312 30.0629 31.664 29.2166 31.6667 28.3333V25H35V21.6667H31.6667V18.3333H35ZM28.3333 28.3333H11.6667V11.6667H28.3333V28.3333Z" fill="#0D79C9"/>
<path d="M18.9349 13.3334H16.6933L13.3433 26.6667H15.0549L15.8283 23.5417H19.6883L20.4416 26.6667H22.2116L18.9349 13.3334ZM16.0533 22.2067L17.7499 14.9167H17.8266L19.4649 22.2067H16.0533ZM23.7399 13.3334H25.4066V26.6667H23.7399V13.3334Z" fill="#0D79C9"/>
</svg>
