<svg width="40" height="40" viewBox="0 0 40 40" fill="none" xmlns="http://www.w3.org/2000/svg">
<path fill-rule="evenodd" clip-rule="evenodd" d="M23.7984 3.58671C23.1817 3.33337 22.3984 3.33337 20.8334 3.33337C19.2684 3.33337 18.4867 3.33337 17.8684 3.58671C17.4615 3.75295 17.0916 3.99801 16.7798 4.30779C16.468 4.61756 16.2206 4.98593 16.0517 5.39171C15.895 5.76337 15.835 6.19837 15.81 6.83004C15.7981 7.28754 15.6701 7.73451 15.4381 8.12897C15.206 8.52342 14.8775 8.85241 14.4834 9.08504C14.0813 9.30855 13.6293 9.42695 13.1692 9.42928C12.7092 9.43161 12.256 9.31779 11.8517 9.09837C11.2884 8.80171 10.88 8.63837 10.4767 8.58504C9.59434 8.46991 8.70215 8.70703 7.99337 9.24504C7.46337 9.64837 7.0717 10.3217 6.29004 11.6667C5.5067 13.0117 5.1167 13.6834 5.02837 14.3417C4.9117 15.2184 5.1517 16.105 5.69504 16.8067C5.9417 17.1267 6.29004 17.395 6.82837 17.7317C7.62337 18.2267 8.13337 19.07 8.13337 20C8.13337 20.93 7.62337 21.7734 6.83004 22.2667C6.29004 22.605 5.9417 22.8734 5.69337 23.1934C5.42598 23.5404 5.22962 23.9367 5.11551 24.3597C5.00141 24.7826 4.9718 25.224 5.02837 25.6584C5.1167 26.315 5.5067 26.9884 6.29004 28.3334C7.07337 29.6784 7.46337 30.35 7.99337 30.755C8.70004 31.2934 9.59337 31.53 10.4767 31.415C10.88 31.3617 11.2884 31.1984 11.8517 30.9017C12.2562 30.682 12.7097 30.568 13.1701 30.5703C13.6304 30.5727 14.0827 30.6912 14.485 30.915C15.295 31.3817 15.775 32.24 15.81 33.17C15.835 33.8034 15.895 34.2367 16.0517 34.6084C16.3917 35.425 17.045 36.075 17.8684 36.4134C18.485 36.6667 19.2684 36.6667 20.8334 36.6667C22.3984 36.6667 23.1817 36.6667 23.7984 36.4134C24.2052 36.2471 24.5752 36.0021 24.887 35.6923C25.1987 35.3825 25.4462 35.0141 25.615 34.6084C25.7717 34.2367 25.8317 33.8034 25.8567 33.17C25.89 32.24 26.3717 31.38 27.1834 30.915C27.5855 30.6915 28.0375 30.5731 28.4975 30.5708C28.9575 30.5685 29.4107 30.6823 29.815 30.9017C30.3784 31.1984 30.7867 31.3617 31.19 31.415C32.0734 31.5317 32.9667 31.2934 33.6734 30.755C34.2034 30.3517 34.595 29.6784 35.3767 28.3334C36.16 26.9884 36.55 26.3167 36.6384 25.6584C36.6947 25.2238 36.6648 24.7825 36.5504 24.3595C36.436 23.9365 36.2394 23.5403 35.9717 23.1934C35.725 22.8734 35.3767 22.605 34.8384 22.2684C34.0434 21.7734 33.5334 20.93 33.5334 20C33.5334 19.07 34.0434 18.2267 34.8367 17.7334C35.3767 17.395 35.725 17.1267 35.9734 16.8067C36.2408 16.4597 36.4371 16.0634 36.5512 15.6404C36.6653 15.2174 36.6949 14.7761 36.6384 14.3417C36.55 13.685 36.16 13.0117 35.3767 11.6667C34.5934 10.3217 34.2034 9.65004 33.6734 9.24504C32.9646 8.70703 32.0724 8.46991 31.19 8.58504C30.7867 8.63837 30.3784 8.80171 29.815 9.09837C29.4105 9.31809 28.957 9.43207 28.4967 9.42974C28.0363 9.42741 27.584 9.30884 27.1817 9.08504C26.7879 8.85221 26.4597 8.52313 26.2279 8.12869C25.9962 7.73425 25.8684 7.28738 25.8567 6.83004C25.8317 6.19671 25.7717 5.76337 25.615 5.39171C25.4462 4.98593 25.1987 4.61756 24.887 4.30779C24.5752 3.99801 24.2052 3.75295 23.7984 3.58671ZM20.8334 25C23.6167 25 25.8717 22.7617 25.8717 20C25.8717 17.2384 23.615 15 20.8334 15C18.0517 15 15.795 17.2384 15.795 20C15.795 22.7617 18.0517 25 20.8334 25Z" fill="#0D79C9"/>
</svg>
