<svg width="40" height="40" viewBox="0 0 40 40" fill="none" xmlns="http://www.w3.org/2000/svg">
<path d="M29.1667 20C31.5978 20 33.9294 20.9658 35.6485 22.6849C37.3676 24.404 38.3334 26.7356 38.3334 29.1667C38.3334 31.5979 37.3676 33.9294 35.6485 35.6485C33.9294 37.3676 31.5978 38.3334 29.1667 38.3334C26.7355 38.3334 24.404 37.3676 22.6849 35.6485C20.9658 33.9294 20 31.5979 20 29.1667C20 26.7356 20.9658 24.404 22.6849 22.6849C24.404 20.9658 26.7355 20 29.1667 20ZM33.5767 25.2434L26.7567 32.065L24.8334 29.5C24.7007 29.3232 24.5033 29.2063 24.2845 29.1751C24.0658 29.1438 23.8435 29.2008 23.6667 29.3334C23.4899 29.466 23.373 29.6634 23.3417 29.8822C23.3105 30.101 23.3674 30.3232 23.5 30.5L26 33.8334C26.0717 33.9289 26.1631 34.008 26.2681 34.0651C26.373 34.1223 26.489 34.1562 26.6082 34.1646C26.7274 34.1729 26.847 34.1556 26.9589 34.1137C27.0707 34.0718 27.1723 34.0063 27.2567 33.9217L34.7567 26.4217C34.9085 26.2645 34.9925 26.054 34.9906 25.8355C34.9887 25.617 34.901 25.408 34.7465 25.2535C34.592 25.099 34.383 25.0114 34.1645 25.0095C33.946 25.0076 33.7339 25.0916 33.5767 25.2434ZM18.3667 28.3334H4.58336L4.41336 28.345C4.09961 28.3882 3.81394 28.5489 3.61408 28.7945C3.41422 29.0402 3.31506 29.3526 3.33665 29.6686C3.35824 29.9845 3.49895 30.2805 3.73037 30.4968C3.96179 30.713 4.26665 30.8333 4.58336 30.8334H18.46C18.3334 30.0064 18.3015 29.1676 18.365 28.3334M19.5534 24.1667H4.58336C4.26665 24.1666 3.96179 24.0463 3.73037 23.8301C3.49895 23.6139 3.35824 23.3179 3.33665 23.0019C3.31506 22.6859 3.41422 22.3736 3.61408 22.1279C3.81394 21.8822 4.09961 21.7215 4.41336 21.6784L4.58336 21.6667H21.35C20.6352 22.4103 20.0302 23.2521 19.5534 24.1667ZM35.4167 15H4.58336L4.41336 15.0117C4.09961 15.0549 3.81394 15.2155 3.61408 15.4612C3.41422 15.7069 3.31506 16.0193 3.33665 16.3352C3.35824 16.6512 3.49895 16.9472 3.73037 17.1634C3.96179 17.3796 4.26665 17.4999 4.58336 17.5H35.4167L35.5867 17.4884C35.9004 17.4452 36.1861 17.2846 36.386 17.0389C36.5858 16.7932 36.685 16.4808 36.6634 16.1648C36.6418 15.8489 36.5011 15.5529 36.2697 15.3367C36.0383 15.1204 35.7334 15.0001 35.4167 15ZM35.4167 8.33337H4.58336L4.41336 8.34504C4.09961 8.38821 3.81394 8.54886 3.61408 8.79454C3.41422 9.04022 3.31506 9.3526 3.33665 9.66857C3.35824 9.98454 3.49895 10.2805 3.73037 10.4968C3.96179 10.713 4.26665 10.8333 4.58336 10.8334H35.4167L35.5867 10.8217C35.9004 10.7785 36.1861 10.6179 36.386 10.3722C36.5858 10.1265 36.685 9.81414 36.6634 9.49817C36.6418 9.18221 36.5011 8.88621 36.2697 8.66999C36.0383 8.45378 35.7334 8.33347 35.4167 8.33337Z" fill="#0D79C9"/>
</svg>
