<svg width="142" height="28" viewBox="0 0 142 28" fill="none" xmlns="http://www.w3.org/2000/svg">
<path d="M4.85457 19.6729C4.18233 19.6729 3.5485 19.5528 2.95308 19.3127C2.36726 19.063 1.85828 18.7125 1.42612 18.2611C1.00357 17.8098 0.686651 17.2768 0.475373 16.6622L2.30484 15.8411C2.57374 16.4269 2.94347 16.8878 3.41405 17.224C3.89422 17.5601 4.42241 17.7282 4.99862 17.7282C5.30594 17.7282 5.57003 17.6801 5.79091 17.5841C6.01179 17.4881 6.18466 17.3584 6.3095 17.1952C6.43435 17.0223 6.49677 16.8206 6.49677 16.5901C6.49677 16.3404 6.41994 16.1292 6.26629 15.9563C6.11263 15.7738 5.87254 15.6298 5.54602 15.5241L3.44286 14.8327C2.58814 14.5542 1.94471 14.1605 1.51255 13.6515C1.08039 13.1329 0.864315 12.5135 0.864315 11.7932C0.864315 11.1594 1.01797 10.6024 1.32528 10.1222C1.6422 9.642 2.07916 9.26747 2.63616 8.99857C3.20277 8.72967 3.85101 8.59522 4.58087 8.59522C5.22431 8.59522 5.81972 8.70566 6.36712 8.92654C6.91452 9.14742 7.3851 9.45954 7.77884 9.86288C8.18219 10.2662 8.4847 10.7512 8.68637 11.3178L6.87131 12.1389C6.66963 11.6395 6.36712 11.2506 5.96378 10.9721C5.56043 10.684 5.09946 10.5399 4.58087 10.5399C4.28316 10.5399 4.01907 10.5879 3.78858 10.684C3.5581 10.78 3.38043 10.9193 3.25559 11.1017C3.13074 11.2746 3.06832 11.4763 3.06832 11.7068C3.06832 11.9564 3.14995 12.1773 3.31321 12.3694C3.47647 12.5519 3.72136 12.6959 4.04788 12.8016L6.10783 13.4642C6.97214 13.7427 7.61558 14.1316 8.03813 14.631C8.47029 15.1304 8.68637 15.7402 8.68637 16.4605C8.68637 17.0847 8.52311 17.6417 8.19659 18.1315C7.87007 18.6117 7.41871 18.991 6.8425 19.2695C6.27589 19.5384 5.61325 19.6729 4.85457 19.6729ZM12.9786 19.5V8.76808H15.1394L19.1584 14.098H18.1501L22.0539 8.76808H24.2147V19.5H21.9819V11.2314L22.875 11.4331L18.7407 16.763H18.4526L14.4623 11.4331L15.2114 11.2314V19.5H12.9786ZM28.0264 19.5L31.6566 8.76808H34.624L38.2542 19.5H35.8197L35.0994 17.3104H31.1668L30.4465 19.5H28.0264ZM31.7862 15.3657H34.48L32.8378 10.295H33.4428L31.7862 15.3657ZM42.0704 19.5V8.76808H46.1759C46.9154 8.76808 47.5684 8.89773 48.1351 9.15702C48.7113 9.41632 49.1626 9.80046 49.4891 10.3094C49.8157 10.8184 49.9789 11.4475 49.9789 12.1965C49.9789 12.9264 49.8109 13.5506 49.4747 14.0692C49.1386 14.5782 48.6873 14.9623 48.1206 15.2216L50.5695 19.5H48.063L45.4125 14.7607L46.853 15.6106H44.3033V19.5H42.0704ZM44.3033 13.6659H46.1903C46.5073 13.6659 46.781 13.6034 47.0114 13.4786C47.2419 13.3538 47.4196 13.1809 47.5444 12.96C47.6789 12.7391 47.7461 12.4846 47.7461 12.1965C47.7461 11.8988 47.6789 11.6395 47.5444 11.4186C47.4196 11.1978 47.2419 11.0249 47.0114 10.9001C46.781 10.7752 46.5073 10.7128 46.1903 10.7128H44.3033V13.6659ZM56.0286 19.5V10.7128H53.306V8.76808H60.9408V10.7128H58.2614V19.5H56.0286ZM68.6513 19.6729C67.979 19.6729 67.3452 19.5528 66.7498 19.3127C66.164 19.063 65.655 18.7125 65.2228 18.2611C64.8003 17.8098 64.4834 17.2768 64.2721 16.6622L66.1016 15.8411C66.3705 16.4269 66.7402 16.8878 67.2108 17.224C67.6909 17.5601 68.2191 17.7282 68.7953 17.7282C69.1027 17.7282 69.3668 17.6801 69.5876 17.5841C69.8085 17.4881 69.9814 17.3584 70.1062 17.1952C70.2311 17.0223 70.2935 16.8206 70.2935 16.5901C70.2935 16.3404 70.2167 16.1292 70.063 15.9563C69.9093 15.7738 69.6693 15.6298 69.3427 15.5241L67.2396 14.8327C66.3849 14.5542 65.7414 14.1605 65.3093 13.6515C64.8771 13.1329 64.661 12.5135 64.661 11.7932C64.661 11.1594 64.8147 10.6024 65.122 10.1222C65.4389 9.642 65.8759 9.26747 66.4329 8.99857C66.9995 8.72967 67.6477 8.59522 68.3776 8.59522C69.021 8.59522 69.6164 8.70566 70.1638 8.92654C70.7112 9.14742 71.1818 9.45954 71.5756 9.86288C71.9789 10.2662 72.2814 10.7512 72.4831 11.3178L70.668 12.1389C70.4664 11.6395 70.1638 11.2506 69.7605 10.9721C69.3571 10.684 68.8962 10.5399 68.3776 10.5399C68.0799 10.5399 67.8158 10.5879 67.5853 10.684C67.3548 10.78 67.1772 10.9193 67.0523 11.1017C66.9275 11.2746 66.865 11.4763 66.865 11.7068C66.865 11.9564 66.9467 12.1773 67.1099 12.3694C67.2732 12.5519 67.5181 12.6959 67.8446 12.8016L69.9045 13.4642C70.7689 13.7427 71.4123 14.1316 71.8349 14.631C72.267 15.1304 72.4831 15.7402 72.4831 16.4605C72.4831 17.0847 72.3198 17.6417 71.9933 18.1315C71.6668 18.6117 71.2154 18.991 70.6392 19.2695C70.0726 19.5384 69.41 19.6729 68.6513 19.6729ZM81.8748 19.6729C81.1065 19.6729 80.391 19.5336 79.7284 19.2551C79.0753 18.9766 78.5039 18.5877 78.0141 18.0883C77.5244 17.5889 77.1402 17.0031 76.8617 16.3308C76.5928 15.6586 76.4584 14.9239 76.4584 14.1268C76.4584 13.3297 76.5928 12.5951 76.8617 11.9228C77.1306 11.241 77.51 10.6552 77.9997 10.1654C78.4895 9.66601 79.0609 9.28187 79.714 9.01297C80.3766 8.73447 81.0969 8.59522 81.8748 8.59522C82.6526 8.59522 83.3489 8.72487 83.9635 8.98416C84.5877 9.24346 85.1159 9.58918 85.5481 10.0213C85.9803 10.4535 86.2876 10.9337 86.47 11.4619L84.4965 12.4126C84.314 11.894 83.9923 11.4667 83.5314 11.1305C83.08 10.7848 82.5278 10.612 81.8748 10.612C81.2409 10.612 80.6839 10.7608 80.2037 11.0585C79.7236 11.3562 79.349 11.7692 79.0801 12.2974C78.8208 12.816 78.6912 13.4258 78.6912 14.1268C78.6912 14.8279 78.8208 15.4425 79.0801 15.9707C79.349 16.4989 79.7236 16.9119 80.2037 17.2096C80.6839 17.5073 81.2409 17.6561 81.8748 17.6561C82.5278 17.6561 83.08 17.4881 83.5314 17.1519C83.9923 16.8062 84.314 16.3741 84.4965 15.8555L86.47 16.8062C86.2876 17.3344 85.9803 17.8146 85.5481 18.2467C85.1159 18.6789 84.5877 19.0246 83.9635 19.2839C83.3489 19.5432 82.6526 19.6729 81.8748 19.6729ZM90.6038 19.5V8.76808H94.7093C95.4487 8.76808 96.1018 8.89773 96.6684 9.15702C97.2446 9.41632 97.696 9.80046 98.0225 10.3094C98.349 10.8184 98.5123 11.4475 98.5123 12.1965C98.5123 12.9264 98.3442 13.5506 98.0081 14.0692C97.672 14.5782 97.2206 14.9623 96.654 15.2216L99.1029 19.5H96.5964L93.9458 14.7607L95.3863 15.6106H92.8366V19.5H90.6038ZM92.8366 13.6659H94.7237C95.0406 13.6659 95.3143 13.6034 95.5448 13.4786C95.7753 13.3538 95.9529 13.1809 96.0778 12.96C96.2122 12.7391 96.2794 12.4846 96.2794 12.1965C96.2794 11.8988 96.2122 11.6395 96.0778 11.4186C95.9529 11.1978 95.7753 11.0249 95.5448 10.9001C95.3143 10.7752 95.0406 10.7128 94.7237 10.7128H92.8366V13.6659ZM102.913 19.5V8.76808H105.146V19.5H102.913ZM109.75 19.5V8.76808H114.287C115.027 8.76808 115.661 8.89293 116.189 9.14262C116.717 9.39231 117.121 9.75244 117.399 10.223C117.678 10.684 117.817 11.2458 117.817 11.9084C117.817 12.379 117.687 12.8304 117.428 13.2625C117.169 13.6851 116.741 14.0404 116.146 14.3285V13.2337C116.712 13.4546 117.149 13.7187 117.457 14.026C117.764 14.3333 117.975 14.6694 118.09 15.0344C118.206 15.3897 118.263 15.7642 118.263 16.158C118.263 17.2144 117.913 18.0355 117.212 18.6213C116.511 19.2071 115.536 19.5 114.287 19.5H109.75ZM111.983 17.5553H114.547C114.998 17.5553 115.358 17.4256 115.627 17.1663C115.896 16.9071 116.031 16.5709 116.031 16.158C116.031 15.7354 115.896 15.3945 115.627 15.1352C115.358 14.8759 114.998 14.7463 114.547 14.7463H111.983V17.5553ZM111.983 12.8016H114.446C114.792 12.8016 115.065 12.7055 115.267 12.5135C115.478 12.3118 115.584 12.0477 115.584 11.7212C115.584 11.3946 115.478 11.1353 115.267 10.9433C115.065 10.7416 114.792 10.6408 114.446 10.6408H111.983V12.8016ZM122.397 19.5V8.76808H126.934C127.674 8.76808 128.308 8.89293 128.836 9.14262C129.364 9.39231 129.767 9.75244 130.046 10.223C130.324 10.684 130.464 11.2458 130.464 11.9084C130.464 12.379 130.334 12.8304 130.075 13.2625C129.815 13.6851 129.388 14.0404 128.793 14.3285V13.2337C129.359 13.4546 129.796 13.7187 130.103 14.026C130.411 14.3333 130.622 14.6694 130.737 15.0344C130.853 15.3897 130.91 15.7642 130.91 16.158C130.91 17.2144 130.56 18.0355 129.859 18.6213C129.157 19.2071 128.183 19.5 126.934 19.5H122.397ZM124.629 17.5553H127.194C127.645 17.5553 128.005 17.4256 128.274 17.1663C128.543 16.9071 128.677 16.5709 128.677 16.158C128.677 15.7354 128.543 15.3945 128.274 15.1352C128.005 14.8759 127.645 14.7463 127.194 14.7463H124.629V17.5553ZM124.629 12.8016H127.093C127.438 12.8016 127.712 12.7055 127.914 12.5135C128.125 12.3118 128.231 12.0477 128.231 11.7212C128.231 11.3946 128.125 11.1353 127.914 10.9433C127.712 10.7416 127.438 10.6408 127.093 10.6408H124.629V12.8016ZM135.043 19.5V8.76808H137.276V17.5553H141.814V19.5H135.043Z" fill="#0D79C9"/>
</svg>
