<svg width="40" height="40" viewBox="0 0 40 40" fill="none" xmlns="http://www.w3.org/2000/svg">
<path d="M6.66663 20V11.6666C6.66663 11.01 6.79596 10.3598 7.04723 9.75321C7.2985 9.14658 7.6668 8.59539 8.13109 8.13109C8.59539 7.6668 9.14658 7.2985 9.75321 7.04723C10.3598 6.79595 11.01 6.66663 11.6666 6.66663C12.3232 6.66663 12.9734 6.79595 13.58 7.04723C14.1867 7.2985 14.7379 7.6668 15.2022 8.13109C15.6665 8.59539 16.0348 9.14658 16.286 9.75321C16.5373 10.3598 16.6666 11.01 16.6666 11.6666V20M6.66663 15H16.6666M33.3333 9.99996V20M6.66663 26.6666H26.6666M6.66663 33.3333H16.6666M23.3333 33.3333L26.6666 36.6666L35 28.3333M23.3333 15C23.3333 16.326 23.8601 17.5978 24.7978 18.5355C25.7354 19.4732 27.0072 20 28.3333 20C29.6594 20 30.9311 19.4732 31.8688 18.5355C32.8065 17.5978 33.3333 16.326 33.3333 15C33.3333 13.6739 32.8065 12.4021 31.8688 11.4644C30.9311 10.5267 29.6594 9.99996 28.3333 9.99996C27.0072 9.99996 25.7354 10.5267 24.7978 11.4644C23.8601 12.4021 23.3333 13.6739 23.3333 15Z" stroke="#0D79C9" stroke-width="3.33333" stroke-linecap="round" stroke-linejoin="round"/>
</svg>
