<svg width="40" height="40" viewBox="0 0 40 40" fill="none" xmlns="http://www.w3.org/2000/svg">
<path d="M35.0001 13.3334C32.5834 13.3334 31.2334 15.7334 31.7834 17.5167L25.8668 23.45C25.3668 23.3 24.6334 23.3 24.1334 23.45L19.8834 19.2C20.4501 17.4167 19.1001 15 16.6667 15C14.2501 15 12.8834 17.4 13.4501 19.2L5.85008 26.7834C4.06675 26.2334 1.66675 27.5834 1.66675 30C1.66675 31.8334 3.16675 33.3334 5.00008 33.3334C7.41675 33.3334 8.76675 30.9334 8.21675 29.15L15.8001 21.55C16.3001 21.7 17.0334 21.7 17.5334 21.55L21.7834 25.8C21.2167 27.5834 22.5667 30 25.0001 30C27.4167 30 28.7834 27.6 28.2167 25.8L34.1501 19.8834C35.9334 20.4334 38.3334 19.0834 38.3334 16.6667C38.3334 14.8334 36.8334 13.3334 35.0001 13.3334Z" fill="#0D79C9"/>
<path d="M25.0001 15L26.5667 11.55L30.0001 10L26.5667 8.45L25.0001 5L23.4667 8.45L20.0001 10L23.4667 11.55L25.0001 15ZM5.83342 18.3333L6.66675 15L10.0001 14.1667L6.66675 13.3333L5.83342 10L5.00008 13.3333L1.66675 14.1667L5.00008 15L5.83342 18.3333Z" fill="#0D79C9"/>
</svg>
